<svg width="771" height="1025" viewBox="0 0 771 1025" fill="none" xmlns="http://www.w3.org/2000/svg">
<path d="M377.286 704.656H178.454V557.433H377.286V704.656ZM591.612 704.656H392.78V557.433H591.612V704.656ZM377.286 541.936H178.454V402.463H377.286V541.936ZM591.612 541.936H392.78V402.463H591.612V541.936ZM377.286 386.966H178.454V291.401C178.454 276.333 180.067 261.643 183.129 247.492H377.286V386.966ZM586.938 247.492C589.999 261.643 591.612 276.333 591.612 291.401V386.966H392.78V247.492H586.938ZM364.418 231.995H187.12C199.758 189.813 225.507 153.3 259.634 127.188L364.418 231.995ZM510.376 127.146C544.531 153.261 570.302 189.79 582.946 231.995H405.552L510.376 127.146ZM377.286 230.255L268.1 121.044C299.362 99.535 336.838 86.4099 377.286 84.9182V230.255ZM392.78 84.9182C433.203 86.4089 470.659 99.5186 501.909 121.004L392.78 230.158V84.9182Z" fill="url(#paint0_linear_91_81)"/>
<path d="M648.166 543.632C626.317 546.138 615.055 565.924 614.696 574.088C614.372 581.474 615.658 583.511 623.628 585.754C633.591 588.558 641.475 582.182 650.984 570.424C660.494 558.665 670.88 550.182 686.386 555.242C682.177 544.853 665.027 541.698 648.166 543.632Z" fill="#38784A"/>
<path d="M641.784 587.804C627.109 591.333 618.891 603.269 618.588 608.864C618.314 613.926 621.229 615.953 626.687 617.443C633.51 619.306 641.12 607.963 648.649 603.718C654.672 600.322 664.099 599.817 672.931 605.827C670.112 598.735 656.459 584.274 641.784 587.804Z" fill="#38784A"/>
<path d="M598.322 523.688C580.541 538.987 581.479 559.344 586.8 567.284C591.612 574.465 597.953 575.194 607.452 573.373C619.327 571.097 618.752 550.031 625.367 538.822C630.659 529.856 640.306 512.972 662.542 502.107C647.913 499.428 616.103 508.39 598.322 523.688Z" fill="#38784A"/>
<path d="M569.135 593.705C581.431 593.31 589.288 601.784 590.081 606.597C590.797 610.951 588.622 613.411 584.322 616.005C578.947 619.248 571.642 611.148 565.097 609.225C559.861 607.687 540.491 602.724 533.884 610.063C535.488 603.203 556.839 594.1 569.135 593.705Z" fill="#38784A"/>
<path d="M573.871 565.717C589.681 570.319 595.534 584.345 594.195 590.788C592.985 596.616 589.023 598.839 582.297 600.349C573.891 602.237 568.559 588.915 561.182 583.756C555.28 579.629 539.219 568.795 527.252 575.376C532.632 567.327 558.061 561.115 573.871 565.717Z" fill="#38784A"/>
<path d="M598.053 598.611C597.384 622.313 604.041 649.916 607.454 660.754C604.32 640.04 599.151 591.75 603.541 564.305C607.931 536.86 622.822 518.305 629.719 512.458C625.039 516.411 614.189 527.826 608.236 541.866C600.795 559.415 598.89 568.984 598.053 598.611Z" fill="#2E5C35"/>
<path d="M592.083 625.596C593.343 632.61 588.429 640.747 585.814 643.938C587.904 637.824 590.942 623.562 586.38 615.425C581.817 607.288 568.499 601.735 562.41 599.976C566.542 601.165 576.184 604.588 581.7 608.767C588.595 613.99 590.507 616.829 592.083 625.596Z" fill="#2E5C35"/>
<path d="M597.386 627.918C599.396 643.365 595.139 661.726 592.759 668.976C594.301 655.29 596.002 623.492 590.466 605.788C584.93 588.083 570.609 576.712 564.14 573.239C568.529 575.586 578.838 582.497 584.959 591.368C592.61 602.456 594.872 608.61 597.386 627.918Z" fill="#2E5C35"/>
<path d="M610.728 628.097C604.591 639.692 602.808 655.23 602.684 661.55C605.365 650.399 613.156 624.988 622.87 612.551C632.583 600.114 647.751 594.969 654.12 593.951C649.801 594.634 639.252 597.338 631.609 602.685C622.055 609.37 618.399 613.603 610.728 628.097Z" fill="#2E5C35"/>
<path d="M609.524 602.293C602.348 617.981 598.656 637.971 597.707 646.005C601.646 631.435 612.169 597.961 622.747 580.632C633.326 563.304 647.959 554.348 653.953 552.036C649.89 553.595 639.828 558.714 632.09 566.72C622.418 576.728 618.495 582.683 609.524 602.293Z" fill="#2E5C35"/>
<path d="M641.774 624.898C644.572 624.898 646.656 627.527 646.063 630.31L644.1 639.51C643.701 641.381 642.184 642.762 640.356 642.994L629.705 695.257H570.034L560.089 642.994C558.233 642.761 556.7 641.343 556.326 639.438L554.52 630.237C553.978 627.474 556.055 624.898 558.824 624.898H641.774Z" fill="#4D4D4D"/>
<path d="M185.912 583.631C185.477 580.617 187.815 577.918 190.86 577.918H337.812C340.298 577.918 342.406 579.745 342.761 582.205L359.17 696.095H202.115L185.912 583.631Z" fill="#C9B39F"/>
<g filter="url(#filter0_d_91_81)">
<path d="M188.784 586.33C188.337 583.309 190.677 580.597 193.73 580.597H336.021C338.5 580.597 340.605 582.413 340.967 584.865L356.858 692.225H204.458L188.784 586.33Z" fill="white"/>
</g>
<rect x="202.945" y="686.162" width="193.798" height="9.98776" fill="#C9B39F"/>
<rect x="226.49" y="686.217" width="193.798" height="9.98776" rx="2" fill="#BA9E65"/>
<path fill-rule="evenodd" clip-rule="evenodd" d="M188.302 637.607C189.841 637.607 191.088 638.865 191.088 640.418L182.088 695.522H148.588L147.088 688.418C141.804 686.889 133.786 682.963 131.088 680.418C121.588 670.055 121.088 662.418 124.088 655.418C126.902 650.434 129.193 649.418 132.588 648.418C135.088 647.682 137.896 648.316 138.588 648.418L137.314 640.418C137.314 638.865 138.561 637.607 140.1 637.607L188.302 637.607ZM136.588 654.418C130.225 654.418 127.972 662.545 130.115 667.126C133.691 675.918 142.011 680.373 145.671 681.282L139.588 654.918C138.859 654.716 137.37 654.418 136.588 654.418Z" fill="#F7BF64"/>
<rect x="107.088" y="695.149" width="555.891" height="29.7674" rx="10" fill="#82572B"/>
<rect x="148.088" y="724.437" width="30" height="299" fill="#4F3318"/>
<rect x="592.088" y="724.437" width="30" height="299" fill="#4F3318"/>
<path d="M196.036 595.541C195.022 590.013 199.268 584.918 204.888 584.918H233.588C237.933 584.918 241.657 588.022 242.441 592.295L245.506 609.017C246.069 612.088 243.711 614.918 240.588 614.918H203.755C201.341 614.918 199.272 613.194 198.837 610.82L196.036 595.541Z" fill="#F6EADA"/>
<path d="M202.206 625.666C198.961 623.859 200.244 618.918 203.958 618.918H295.96C296.981 618.918 297.985 619.179 298.877 619.676C301.879 621.347 300.693 625.918 297.257 625.918H203.179C202.839 625.918 202.504 625.831 202.206 625.666Z" fill="#F6EADA"/>
<path d="M205.206 636.666C201.961 634.859 203.244 629.918 206.958 629.918H298.96C299.981 629.918 300.985 630.179 301.877 630.676C304.879 632.347 303.693 636.918 300.257 636.918H206.179C205.839 636.918 205.504 636.831 205.206 636.666Z" fill="#F6EADA"/>
<path d="M245.036 595.541C244.022 590.013 248.268 584.918 253.888 584.918H282.588C286.933 584.918 290.657 588.022 291.441 592.295L294.506 609.017C295.069 612.088 292.711 614.918 289.588 614.918H252.755C250.341 614.918 248.272 613.194 247.837 610.82L245.036 595.541Z" fill="#F6EADA"/>
<path d="M206.399 650.071C205.704 644.687 209.897 639.918 215.325 639.918H244.623C249.148 639.918 252.97 643.278 253.549 647.766L257.36 677.278C257.746 680.269 255.417 682.918 252.401 682.918H215.037C212.523 682.918 210.4 681.052 210.078 678.559L206.399 650.071Z" fill="#F6EADA"/>
<path d="M294.036 595.541C293.022 590.013 297.268 584.918 302.888 584.918H331.588C335.933 584.918 339.657 588.022 340.441 592.295L343.506 609.017C344.069 612.088 341.711 614.918 338.588 614.918H301.755C299.341 614.918 297.272 613.194 296.837 610.82L294.036 595.541Z" fill="#F6EADA"/>
<path d="M343.003 468.242C341.465 465.444 339.479 454.416 338.678 449.253C338.678 440.924 342.81 420.768 359.339 406.776C380 389.286 393.934 386.787 415.075 388.286C436.216 389.785 453.033 428.764 451.592 449.253C450.439 465.643 436.377 490.063 429.49 500.224C430.13 502.556 431.988 509.219 434.295 517.215C436.601 525.211 437.498 532.873 437.658 535.705C421.642 538.037 390.474 541.901 393.934 538.703C397.393 535.505 395.375 525.044 393.934 520.213C393.453 521.379 391.916 524.211 389.61 526.21C387.303 528.209 383.203 529.708 381.441 530.208C375.996 527.209 363.952 520.013 359.339 515.216C354.726 510.419 352.612 507.887 352.132 507.22C351.171 507.054 348.864 506.021 347.327 503.223C345.789 500.424 349.89 487.731 352.132 481.735C349.729 478.403 344.54 471.04 343.003 468.242Z" fill="#EFAA93"/>
<path d="M260.231 686.181C264.875 684.602 274.66 679.643 276.65 672.441C278.972 670.704 281.824 665.713 274.659 659.648C265.704 652.068 245.802 666.755 237.842 672.441C229.881 678.127 222.915 684.286 227.891 686.181C232.866 688.076 236.846 681.443 240.827 681.443C244.011 681.443 248.124 684.602 249.783 686.181H260.231Z" fill="#EFAA93"/>
<path d="M355.798 555.315C341.398 574.915 327.131 616.482 321.798 634.815C300.798 644.315 271.297 642.815 258.797 666.315C248.629 685.43 269.631 692.815 279.798 693.815H347.298L393.088 749.418C431.255 753.252 473.588 756.918 490.088 744.918C508.204 731.743 522.298 709.815 518.798 691.315C522.798 686.481 539.998 671.415 538.798 651.815C537.298 627.315 493.797 555.315 457.798 536.815C417.307 516.006 373.798 530.815 355.798 555.315Z" fill="#D7C4C4"/>
<path d="M327.09 462.918C323.09 452.918 319.088 439.145 328.089 419.918C331.568 412.485 343.423 403.585 344.09 404.418C347.923 395.752 363.09 377.718 393.09 374.918C430.59 371.418 455.59 393.918 461.09 434.918C465.49 467.718 449.923 490.918 441.59 498.418C438.423 499.752 429.69 502.418 420.09 502.418C412.906 502.418 410.687 501.858 410.374 501.367C409.673 502.888 408.59 505.755 408.59 507.918C408.59 510.318 409.923 513.585 410.59 514.918C409.923 513.918 408.19 511.418 406.59 509.418C404.99 507.418 405.923 503.918 406.59 502.418C404.756 504.585 400.99 509.518 400.59 511.918C400.19 514.318 402.423 517.918 403.59 519.418C402.09 518.918 398.69 516.718 397.09 511.918C395.09 505.918 402.09 501.918 399.09 498.418C397.202 496.217 394.574 489.131 392.807 483.773C393.107 485.559 393.276 487.935 393.09 490.918C392.59 498.918 388.09 502.418 384.09 506.418C380.89 509.618 374.09 511.418 371.09 511.918C373.09 511.085 377.09 506.518 377.09 494.918C377.09 483.318 371.09 479.418 368.09 478.918C362.756 475.585 351.49 467.718 349.09 462.918C346.69 458.118 345.756 452.585 345.59 450.418C343.923 452.918 340.59 459.318 340.59 464.918C340.59 470.518 342.923 476.585 344.09 478.918C339.756 476.918 330.29 470.918 327.09 462.918Z" fill="#372C28"/>
<circle cx="393.088" cy="463.918" r="30" fill="#635A55"/>
<path d="M387.589 405.418C387.589 429.918 391.922 432.085 395.589 440.918C389.089 444.085 373.746 449.877 373.089 448.418C368.589 438.418 366.088 423.591 366.088 405.418C366.088 384.418 376.089 378.418 382.589 373.418C389.089 368.418 405.589 367.918 405.589 373.418C405.589 378.918 387.589 380.918 387.589 405.418Z" fill="#635A55"/>
<ellipse cx="439.686" cy="407.274" rx="17.7461" ry="22.0947" transform="rotate(13.4635 439.686 407.274)" fill="#9C4474"/>
<path d="M482.176 390.017C460.545 367.264 432.305 384.197 427.719 399.012C421.808 418.11 425.166 484.552 444.915 506.427C464.98 528.65 487.908 524.947 498.8 520.713C507.513 517.327 506.634 509.778 505.105 506.427C504.532 507.661 502.468 510.448 498.8 511.718C495.131 512.988 490.01 511.189 487.908 510.131C491.349 510.131 493.069 509.601 494.787 508.543C497.655 506.777 498.227 501.841 498.8 499.019C495.36 503.781 487.22 510.448 482.176 499.019C475.87 484.732 506.825 415.945 482.176 390.017Z" fill="#372C28"/>
<path d="M420.193 380.918C422.193 386.518 429.026 389.585 432.193 390.418C433.026 386.085 434.193 375.818 432.193 369.418C430.193 363.018 423.359 358.418 420.193 356.918C419.359 362.585 418.193 375.318 420.193 380.918Z" fill="#9C4474"/>
<path d="M247.843 801.918C255.043 781.918 271.963 777.019 284.843 770.918C313.343 757.418 350.343 746.721 350.343 746.721L356.843 811.918L314.927 833.874C316.053 833.67 322.479 843.931 325.588 868.418C329.588 899.918 328.343 927.418 329.843 940.918C331.343 954.418 337.088 979.918 337.088 984.418C337.088 990.418 313.343 1000.42 313.343 987.918C313.343 975.418 238.843 826.918 247.843 801.918Z" fill="#776158"/>
<path d="M357.75 784.902C364.067 764.907 378.913 760.01 390.214 753.91C415.219 740.414 447.682 729.719 447.682 729.719L453.385 794.899L416.622 816.841C417.542 816.677 421.378 825.594 424.088 849.918C427.598 881.41 428.38 910.368 429.696 923.864C431.012 937.36 434.088 963.419 434.088 967.918C434.088 972.417 415.219 983.348 415.219 970.851C415.219 958.355 349.854 809.895 357.75 784.902Z" fill="#776158"/>
<path d="M443.355 383.282C439.553 387.781 433.443 388.37 430.864 388.102C432.135 383.843 435.714 374.015 439.859 368.78C444.004 363.545 450.771 361.545 453.636 361.2C451.793 366.686 447.158 378.783 443.355 383.282Z" fill="#9C4474"/>
<path d="M320.089 805.918C324.157 817.383 346.589 820.085 352.589 826.418L359.088 738.918C350.088 738.918 326.09 746.418 320.089 752.918C310.396 763.418 314.589 790.418 320.089 805.918Z" fill="#D7C4C4"/>
<path d="M420.905 947.407C414.211 950.103 406.96 959.314 404.171 963.583C406.96 969.425 412.978 982.186 414.74 986.5C416.501 990.813 417.235 999.98 417.382 1004.02C416.354 1006.27 413.595 1011.3 410.776 1013.46C407.958 1015.62 403.143 1022 401.088 1024.92H449.088C448.208 1017.05 445.918 1000.11 443.804 995.262C441.69 990.409 439.987 961.336 439.4 947.407C436.024 946.283 427.598 944.711 420.905 947.407Z" fill="#5F483A"/>
<path d="M460.581 546.437C517.507 546.437 539.088 600.302 539.088 647.071V816.437H343.088C343.088 816.437 346.318 712.154 356.974 647.071C365.519 594.883 403.655 546.437 460.581 546.437Z" fill="#534949"/>
<rect x="314.088" y="814.918" width="234" height="32" rx="10" fill="#534949"/>
<circle cx="392.088" cy="463.918" r="24" fill="#4C4C4C"/>
<circle cx="390.088" cy="461.918" r="22" fill="#635A55"/>
<path d="M449.088 973.685L527.579 1024.92H496.478L449.088 993.986V1024.92H432.088V996.338L388.303 1024.92H357.203L432.088 976.038V846.918H449.088V973.685Z" fill="#958A8A"/>
<path d="M321.132 967.03C313.602 969.043 305.444 975.923 302.306 979.111C305.444 983.474 312.215 993.004 314.196 996.226C316.178 999.447 317.004 1006.29 317.169 1009.31C316.013 1010.99 312.908 1014.75 309.737 1016.36C306.567 1017.97 301.15 1022.74 298.838 1024.92H352.838C351.848 1019.05 349.271 1006.39 346.893 1002.77C344.515 999.145 342.6 977.433 341.939 967.03C338.141 966.191 328.662 965.016 321.132 967.03Z" fill="#5F483A"/>
<path d="M431.088 653.918C427.088 638.318 432.755 614.418 436.088 604.418L486.588 612.418C493.922 621.752 497.588 634.118 497.588 644.918C497.588 658.418 498.088 679.918 508.588 710.918C519.088 741.918 507.588 778.918 508.588 784.918C509.588 790.918 483.588 806.418 478.588 800.918C474.588 796.518 482.255 788.418 486.588 784.918V771.918C483.422 773.252 475.388 775.818 468.588 775.418C461.788 775.018 453.088 772.918 449.588 771.918C450.422 775.252 452.288 783.218 453.088 788.418C454.088 794.918 431.088 813.418 427.088 806.418C423.889 800.818 428.422 792.085 431.088 788.418C424.755 780.752 412.088 760.418 412.088 740.418C412.088 715.418 436.088 673.418 431.088 653.918Z" fill="#372C28"/>
<rect x="405.088" y="551.701" width="18.8427" height="118.755" rx="9.42133" transform="rotate(-13.9423 405.088 551.701)" fill="#372C28"/>
<rect x="472.088" y="547.371" width="15.1554" height="104.624" rx="7.57769" transform="rotate(-1.14322 472.088 547.371)" fill="#372C28"/>
<path d="M441.404 609.447C440.984 609.235 440.445 608.972 439.801 608.669C436.569 607.225 429.633 604.518 423.311 602.677C416.096 600.576 409.86 599.329 407.957 599.203C407.764 599.202 407.593 599.204 407.444 599.21C407.538 599.189 407.712 599.186 407.957 599.203C410.34 599.216 416.024 599.817 423.479 602.227C430.244 604.414 436.438 607.086 439.801 608.669C440.556 609.006 441.108 609.274 441.404 609.447Z" fill="#FFF7EB"/>
<path d="M439.293 609.408C438.797 609.297 438.162 609.166 437.407 609.022C433.636 608.394 425.648 607.516 418.528 607.465C410.403 607.408 403.529 608.039 401.497 608.537C401.294 608.601 401.115 608.663 400.96 608.721C401.053 608.663 401.235 608.601 401.497 608.537C404.004 607.741 410.131 606.524 418.588 606.869C426.262 607.183 433.463 608.272 437.407 609.022C438.287 609.169 438.937 609.302 439.293 609.408Z" fill="#FFF7EB"/>
<path d="M443 610.083C442.547 610.088 441.97 610.102 441.287 610.126C437.883 610.302 430.741 610.968 424.485 612.031C417.346 613.245 411.408 614.709 409.7 615.342C409.531 615.415 409.383 615.482 409.256 615.543C409.329 615.491 409.479 615.424 409.7 615.342C411.78 614.444 416.974 612.719 424.448 611.639C431.23 610.659 437.713 610.251 441.287 610.126C442.081 610.084 442.672 610.07 443 610.083Z" fill="#FFF7EB"/>
<path d="M479.68 616.897C480.102 616.856 480.64 616.812 481.278 616.769C484.456 616.628 491.14 616.688 497.016 617.323C503.723 618.047 509.322 619.201 510.943 619.788C511.103 619.859 511.244 619.925 511.365 619.986C511.295 619.931 511.152 619.864 510.943 619.788C508.963 618.918 504.044 617.371 497.032 616.844C490.67 616.365 484.612 616.548 481.278 616.769C480.536 616.802 479.985 616.846 479.68 616.897Z" fill="#FFF7EB"/>
<path d="M481.526 617.645C481.972 617.726 482.54 617.84 483.21 617.986C486.53 618.8 493.408 620.943 499.285 623.532C505.993 626.487 511.434 629.618 512.936 630.831C513.081 630.966 513.207 631.09 513.315 631.201C513.258 631.112 513.13 630.988 512.936 630.831C511.146 629.165 506.521 625.768 499.44 622.958C493.016 620.407 486.714 618.751 483.21 617.986C482.436 617.796 481.855 617.679 481.526 617.645Z" fill="#FFF7EB"/>
<path d="M478.241 616.898C478.612 617.07 479.082 617.297 479.637 617.572C482.378 618.996 488.028 622.257 492.812 625.559C498.272 629.328 502.656 632.883 503.845 634.102C503.959 634.232 504.058 634.349 504.142 634.453C504.099 634.378 503.999 634.26 503.845 634.102C502.441 632.5 498.759 628.977 492.977 625.209C487.731 621.79 482.535 619.011 479.637 617.572C478.997 617.24 478.516 617.008 478.241 616.898Z" fill="#FFF7EB"/>
<path d="M515.734 594.983C519.676 584.447 522.534 571.234 522.193 566.898C514.285 566.064 505.855 566.567 496.149 569.279C491.61 570.548 488.217 572.306 485.742 574.016C483.453 572.477 480.949 571.179 478.253 570.17C474.843 568.894 471.362 568.17 467.908 567.952C467.072 565.521 465.781 562.758 463.806 559.774C458.237 551.359 452.184 545.445 445.647 540.878C442.542 543.916 436.028 555.733 432.094 566.248C427.895 577.47 429.736 586.84 431.335 593.088C427.858 604.11 429.974 615.686 436.212 624.583L482.241 635.792C489.85 631.83 496.079 625.149 499.323 616.479C499.51 615.978 499.685 615.476 499.849 614.973C505.043 611.251 511.824 605.434 515.734 594.983Z" fill="#372C28"/>
<path d="M471.14 625.732C477.693 622.779 487.765 618.876 489.99 620.497C493.168 622.814 487.984 628.312 487.61 630.924C487.236 633.537 493.788 638.592 488.042 643.778C483.757 647.645 474.726 639.6 469.911 634.199C469.319 634.836 468.446 635.151 467.585 634.949L464.711 634.274C463.952 634.096 463.371 633.555 463.086 632.86C456.093 635.508 445.509 638.843 443.247 636.918C439.993 634.149 445.639 628.623 446.126 625.826C446.614 623.028 439.915 617.016 446.14 611.875C451.006 607.855 460.878 618.442 465.513 624.622C466.005 624.366 466.573 624.277 467.136 624.409L470.011 625.084C470.457 625.189 470.841 625.419 471.14 625.732Z" fill="#9C4474"/>
<path d="M481.027 792.275C475.898 781.191 476.312 762.571 477.16 754.647L462.294 757.677C460.439 770.776 460.58 787.602 465.935 797.92C470.455 806.628 485.763 829.802 506.851 832.884C527.939 835.966 523.471 815.23 513.257 816.978C503.042 818.725 487.439 806.129 481.027 792.275Z" fill="#372C28"/>
<path d="M1.08838 92.4016C19.255 94.0955 66.3884 94.9425 109.588 84.7788C152.788 74.6152 191.588 24.9826 205.588 1.43677C231.255 19.3926 302.988 55.3042 384.588 55.3042C466.188 55.3042 522.255 19.3926 540.088 1.43677C566.922 23.1193 631.288 68.3137 674.088 75.6315C716.888 82.9494 755.255 78.6806 769.088 75.6315" stroke="#C69441" stroke-width="2" stroke-linecap="square"/>
<g filter="url(#filter1_d_91_81)">
<circle cx="335.588" cy="60.4182" r="12.5" fill="#FFF7EB"/>
</g>
<g filter="url(#filter2_d_91_81)">
<circle cx="714.588" cy="91.4182" r="12.5" fill="#FFF7EB"/>
</g>
<g filter="url(#filter3_d_91_81)">
<circle cx="622.588" cy="66.4182" r="12.5" fill="#FFF7EB"/>
</g>
<g filter="url(#filter4_d_91_81)">
<circle cx="63.5884" cy="103.418" r="12.5" fill="#FFF7EB"/>
</g>
<g filter="url(#filter5_d_91_81)">
<circle cx="156.588" cy="72.4182" r="12.5" fill="#FFF7EB"/>
</g>
<g filter="url(#filter6_d_91_81)">
<circle cx="497.588" cy="41.4182" r="12.5" fill="#FFF7EB"/>
</g>
<g filter="url(#filter7_d_91_81)">
<circle cx="260.588" cy="41.4182" r="12.5" fill="#FFF7EB"/>
</g>
<g filter="url(#filter8_d_91_81)">
<circle cx="418.588" cy="60.4182" r="12.5" fill="#FFF7EB"/>
</g>
<defs>
<filter id="filter0_d_91_81" x="173.729" y="569.597" width="198.129" height="141.628" filterUnits="userSpaceOnUse" color-interpolation-filters="sRGB">
<feFlood flood-opacity="0" result="BackgroundImageFix"/>
<feColorMatrix in="SourceAlpha" type="matrix" values="0 0 0 0 0 0 0 0 0 0 0 0 0 0 0 0 0 0 127 0" result="hardAlpha"/>
<feOffset dy="4"/>
<feGaussianBlur stdDeviation="7.5"/>
<feComposite in2="hardAlpha" operator="out"/>
<feColorMatrix type="matrix" values="0 0 0 0 1 0 0 0 0 1 0 0 0 0 1 0 0 0 0.5 0"/>
<feBlend mode="normal" in2="BackgroundImageFix" result="effect1_dropShadow_91_81"/>
<feBlend mode="normal" in="SourceGraphic" in2="effect1_dropShadow_91_81" result="shape"/>
</filter>
<filter id="filter1_d_91_81" x="313.088" y="41.9182" width="45" height="45" filterUnits="userSpaceOnUse" color-interpolation-filters="sRGB">
<feFlood flood-opacity="0" result="BackgroundImageFix"/>
<feColorMatrix in="SourceAlpha" type="matrix" values="0 0 0 0 0 0 0 0 0 0 0 0 0 0 0 0 0 0 127 0" result="hardAlpha"/>
<feOffset dy="4"/>
<feGaussianBlur stdDeviation="5"/>
<feComposite in2="hardAlpha" operator="out"/>
<feColorMatrix type="matrix" values="0 0 0 0 1 0 0 0 0 1 0 0 0 0 1 0 0 0 0.5 0"/>
<feBlend mode="normal" in2="BackgroundImageFix" result="effect1_dropShadow_91_81"/>
<feBlend mode="normal" in="SourceGraphic" in2="effect1_dropShadow_91_81" result="shape"/>
</filter>
<filter id="filter2_d_91_81" x="692.088" y="72.9182" width="45" height="45" filterUnits="userSpaceOnUse" color-interpolation-filters="sRGB">
<feFlood flood-opacity="0" result="BackgroundImageFix"/>
<feColorMatrix in="SourceAlpha" type="matrix" values="0 0 0 0 0 0 0 0 0 0 0 0 0 0 0 0 0 0 127 0" result="hardAlpha"/>
<feOffset dy="4"/>
<feGaussianBlur stdDeviation="5"/>
<feComposite in2="hardAlpha" operator="out"/>
<feColorMatrix type="matrix" values="0 0 0 0 1 0 0 0 0 1 0 0 0 0 1 0 0 0 0.5 0"/>
<feBlend mode="normal" in2="BackgroundImageFix" result="effect1_dropShadow_91_81"/>
<feBlend mode="normal" in="SourceGraphic" in2="effect1_dropShadow_91_81" result="shape"/>
</filter>
<filter id="filter3_d_91_81" x="600.088" y="47.9182" width="45" height="45" filterUnits="userSpaceOnUse" color-interpolation-filters="sRGB">
<feFlood flood-opacity="0" result="BackgroundImageFix"/>
<feColorMatrix in="SourceAlpha" type="matrix" values="0 0 0 0 0 0 0 0 0 0 0 0 0 0 0 0 0 0 127 0" result="hardAlpha"/>
<feOffset dy="4"/>
<feGaussianBlur stdDeviation="5"/>
<feComposite in2="hardAlpha" operator="out"/>
<feColorMatrix type="matrix" values="0 0 0 0 1 0 0 0 0 1 0 0 0 0 1 0 0 0 0.5 0"/>
<feBlend mode="normal" in2="BackgroundImageFix" result="effect1_dropShadow_91_81"/>
<feBlend mode="normal" in="SourceGraphic" in2="effect1_dropShadow_91_81" result="shape"/>
</filter>
<filter id="filter4_d_91_81" x="41.0884" y="84.9182" width="45" height="45" filterUnits="userSpaceOnUse" color-interpolation-filters="sRGB">
<feFlood flood-opacity="0" result="BackgroundImageFix"/>
<feColorMatrix in="SourceAlpha" type="matrix" values="0 0 0 0 0 0 0 0 0 0 0 0 0 0 0 0 0 0 127 0" result="hardAlpha"/>
<feOffset dy="4"/>
<feGaussianBlur stdDeviation="5"/>
<feComposite in2="hardAlpha" operator="out"/>
<feColorMatrix type="matrix" values="0 0 0 0 1 0 0 0 0 1 0 0 0 0 1 0 0 0 0.5 0"/>
<feBlend mode="normal" in2="BackgroundImageFix" result="effect1_dropShadow_91_81"/>
<feBlend mode="normal" in="SourceGraphic" in2="effect1_dropShadow_91_81" result="shape"/>
</filter>
<filter id="filter5_d_91_81" x="134.088" y="53.9182" width="45" height="45" filterUnits="userSpaceOnUse" color-interpolation-filters="sRGB">
<feFlood flood-opacity="0" result="BackgroundImageFix"/>
<feColorMatrix in="SourceAlpha" type="matrix" values="0 0 0 0 0 0 0 0 0 0 0 0 0 0 0 0 0 0 127 0" result="hardAlpha"/>
<feOffset dy="4"/>
<feGaussianBlur stdDeviation="5"/>
<feComposite in2="hardAlpha" operator="out"/>
<feColorMatrix type="matrix" values="0 0 0 0 1 0 0 0 0 1 0 0 0 0 1 0 0 0 0.5 0"/>
<feBlend mode="normal" in2="BackgroundImageFix" result="effect1_dropShadow_91_81"/>
<feBlend mode="normal" in="SourceGraphic" in2="effect1_dropShadow_91_81" result="shape"/>
</filter>
<filter id="filter6_d_91_81" x="475.088" y="22.9182" width="45" height="45" filterUnits="userSpaceOnUse" color-interpolation-filters="sRGB">
<feFlood flood-opacity="0" result="BackgroundImageFix"/>
<feColorMatrix in="SourceAlpha" type="matrix" values="0 0 0 0 0 0 0 0 0 0 0 0 0 0 0 0 0 0 127 0" result="hardAlpha"/>
<feOffset dy="4"/>
<feGaussianBlur stdDeviation="5"/>
<feComposite in2="hardAlpha" operator="out"/>
<feColorMatrix type="matrix" values="0 0 0 0 1 0 0 0 0 1 0 0 0 0 1 0 0 0 0.5 0"/>
<feBlend mode="normal" in2="BackgroundImageFix" result="effect1_dropShadow_91_81"/>
<feBlend mode="normal" in="SourceGraphic" in2="effect1_dropShadow_91_81" result="shape"/>
</filter>
<filter id="filter7_d_91_81" x="238.088" y="22.9182" width="45" height="45" filterUnits="userSpaceOnUse" color-interpolation-filters="sRGB">
<feFlood flood-opacity="0" result="BackgroundImageFix"/>
<feColorMatrix in="SourceAlpha" type="matrix" values="0 0 0 0 0 0 0 0 0 0 0 0 0 0 0 0 0 0 127 0" result="hardAlpha"/>
<feOffset dy="4"/>
<feGaussianBlur stdDeviation="5"/>
<feComposite in2="hardAlpha" operator="out"/>
<feColorMatrix type="matrix" values="0 0 0 0 1 0 0 0 0 1 0 0 0 0 1 0 0 0 0.5 0"/>
<feBlend mode="normal" in2="BackgroundImageFix" result="effect1_dropShadow_91_81"/>
<feBlend mode="normal" in="SourceGraphic" in2="effect1_dropShadow_91_81" result="shape"/>
</filter>
<filter id="filter8_d_91_81" x="396.088" y="41.9182" width="45" height="45" filterUnits="userSpaceOnUse" color-interpolation-filters="sRGB">
<feFlood flood-opacity="0" result="BackgroundImageFix"/>
<feColorMatrix in="SourceAlpha" type="matrix" values="0 0 0 0 0 0 0 0 0 0 0 0 0 0 0 0 0 0 127 0" result="hardAlpha"/>
<feOffset dy="4"/>
<feGaussianBlur stdDeviation="5"/>
<feComposite in2="hardAlpha" operator="out"/>
<feColorMatrix type="matrix" values="0 0 0 0 1 0 0 0 0 1 0 0 0 0 1 0 0 0 0.5 0"/>
<feBlend mode="normal" in2="BackgroundImageFix" result="effect1_dropShadow_91_81"/>
<feBlend mode="normal" in="SourceGraphic" in2="effect1_dropShadow_91_81" result="shape"/>
</filter>
<linearGradient id="paint0_linear_91_81" x1="385.033" y1="394.715" x2="385.033" y2="704.656" gradientUnits="userSpaceOnUse">
<stop stop-color="#1E8BCD"/>
<stop offset="1" stop-color="#9978C2"/>
</linearGradient>
</defs>
</svg>
