<svg width="200" height="200" viewBox="0 0 200 200" fill="none" xmlns="http://www.w3.org/2000/svg">
<circle cx="100" cy="100" r="100" fill="#1C1C1C"/>
<path fill-rule="evenodd" clip-rule="evenodd" d="M47.5 25.0703C48.9502 25.0241 50.4086 25 51.874 25C106.082 25.0001 150.286 56.892 152.5 96.8542V25H160V175H152.5V174.996L130.645 146.737C112.191 163.961 83.7638 175 51.874 175C50.4086 175 48.9503 174.975 47.5 174.928V175H40V25H47.5V25.0703ZM47.5 167.419C48.9494 167.471 50.4077 167.5 51.874 167.5C82.013 167.5 108.716 156.546 125.197 139.692L97.3992 103.75H47.5V167.419ZM152.5 103.145C151.716 117.303 145.661 130.447 135.758 141.52L152.5 163.168V103.145ZM51.4448 32.5022L100.746 96.25H100.75V96.2544L130.067 134.162C137.979 124.141 142.517 112.465 142.517 100C142.517 62.7209 101.935 32.5001 51.874 32.5C51.7309 32.5 51.5878 32.5017 51.4448 32.5022ZM47.5 96.25H91.5991L47.5 39.2295V96.25Z" fill="white"/>
</svg>
