<svg width="580" height="640" viewBox="0 0 580 640" fill="none" xmlns="http://www.w3.org/2000/svg">
<path d="M270.198 619.737H71.3657V472.515H270.198V619.737ZM484.524 619.737H285.692V472.515H484.524V619.737ZM270.198 457.018H71.3657V317.545H270.198V457.018ZM484.524 457.018H285.692V317.545H484.524V457.018ZM270.198 302.048H71.3657V206.482C71.3657 191.415 72.979 176.725 76.0405 162.574H270.198V302.048ZM479.849 162.574C482.911 176.725 484.524 191.415 484.524 206.482V302.048H285.692V162.574H479.849ZM257.33 147.077H80.0317C92.6693 104.895 118.419 68.3814 152.545 42.2695L257.33 147.077ZM403.288 42.2275C437.442 68.3423 463.213 104.872 475.858 147.077H298.463L403.288 42.2275ZM270.198 145.337L161.011 36.126C192.273 14.6168 229.75 1.49167 270.198 0V145.337ZM285.692 0C326.115 1.49073 363.57 14.6004 394.821 36.0859L285.692 145.24V0Z" fill="url(#paint0_linear_82_90)"/>
<path d="M541.077 458.714C519.228 461.22 507.967 481.005 507.608 489.17C507.283 496.555 508.57 498.592 516.54 500.835C526.502 503.639 534.387 497.263 543.896 485.505C553.405 473.747 563.791 465.263 579.298 470.324C575.089 459.935 557.939 456.78 541.077 458.714Z" fill="#75A252"/>
<path d="M534.696 502.886C520.021 506.415 511.802 518.351 511.5 523.946C511.226 529.008 514.14 531.035 519.599 532.525C526.422 534.387 534.032 523.044 541.56 518.8C547.583 515.404 557.011 514.899 565.843 520.909C563.023 513.816 549.371 499.356 534.696 502.886Z" fill="#75A252"/>
<path d="M491.234 438.77C473.453 454.068 474.391 474.426 479.711 482.366C484.524 489.547 490.864 490.275 500.364 488.454C512.238 486.178 511.664 465.113 518.278 453.904C523.57 444.937 533.218 428.054 555.454 417.189C540.825 414.51 509.014 423.472 491.234 438.77Z" fill="#75A252"/>
<path d="M462.047 508.787C474.342 508.392 482.2 516.866 482.992 521.679C483.709 526.033 481.533 528.493 477.233 531.087C471.859 534.33 464.554 526.23 458.009 524.307C452.773 522.769 433.402 517.806 426.796 525.145C428.4 518.285 449.751 509.182 462.047 508.787Z" fill="#75A252"/>
<path d="M466.783 480.799C482.593 485.401 488.446 499.427 487.107 505.87C485.896 511.698 481.934 513.921 475.209 515.431C466.802 517.319 461.47 503.997 454.093 498.838C448.192 494.711 432.131 483.877 420.164 490.458C425.543 482.409 450.972 476.197 466.783 480.799Z" fill="#75A252"/>
<path d="M490.965 513.693C490.296 537.395 496.953 564.997 500.365 575.836C497.232 555.122 492.062 506.832 496.453 479.387C500.843 451.942 515.734 433.387 522.631 427.54C517.95 431.493 507.101 442.908 501.148 456.947C493.706 474.497 491.801 484.065 490.965 513.693Z" fill="#566538"/>
<path d="M484.994 540.678C486.255 547.692 481.34 555.828 478.726 559.02C480.815 552.906 483.854 538.644 479.291 530.506C474.729 522.369 461.411 516.816 455.322 515.057C459.454 516.246 469.096 519.67 474.612 523.848C481.507 529.072 483.419 531.91 484.994 540.678Z" fill="#566538"/>
<path d="M490.297 543C492.308 558.446 488.051 576.808 485.671 584.057C487.213 570.372 488.913 538.574 483.378 520.869C477.842 503.165 463.52 491.793 457.051 488.321C461.441 490.667 471.749 497.579 477.871 506.45C485.522 517.538 487.784 523.692 490.297 543Z" fill="#566538"/>
<path d="M503.639 543.179C497.503 554.774 495.72 570.312 495.595 576.632C498.277 565.481 506.068 540.07 515.781 527.633C525.495 515.196 540.662 510.051 547.032 509.033C542.713 509.716 532.164 512.42 524.521 517.767C514.967 524.451 511.31 528.685 503.639 543.179Z" fill="#566538"/>
<path d="M502.436 517.375C495.259 533.062 491.567 553.053 490.619 561.087C494.558 546.516 505.081 513.042 515.659 495.714C526.238 478.386 540.871 469.43 546.865 467.118C542.801 468.677 532.74 473.796 525.002 481.802C515.33 491.81 511.407 497.765 502.436 517.375Z" fill="#566538"/>
<path d="M534.685 539.979C537.484 539.979 539.568 542.609 538.974 545.392L537.012 554.592C536.613 556.463 535.096 557.844 533.268 558.076L522.616 610.339H462.946L453.001 558.076C451.145 557.843 449.611 556.425 449.238 554.52L447.432 545.319C446.89 542.556 448.967 539.98 451.736 539.979H534.685Z" fill="#7B7A7A"/>
<path d="M78.8231 498.713C78.3889 495.699 80.7269 493 83.772 493H230.723C233.209 493 235.318 494.826 235.672 497.287L252.082 611.177H95.027L78.8231 498.713Z" fill="white"/>
<path d="M81.6956 501.411C81.2486 498.391 83.5888 495.679 86.6417 495.679H228.933C231.412 495.679 233.516 497.495 233.879 499.947L249.77 607.307H97.3695L81.6956 501.411Z" fill="#79675F"/>
<rect x="95.8564" y="601.244" width="193.798" height="9.98776" fill="white"/>
<rect x="119.401" y="601.299" width="193.798" height="9.98776" rx="2" fill="#F8D692"/>
<path d="M328.108 451.065C327.584 451.007 326.916 450.943 326.122 450.878C322.167 450.632 313.834 450.515 306.484 451.065C298.096 451.692 291.07 452.83 289.026 453.445C288.823 453.519 288.644 453.589 288.491 453.654C288.581 453.594 288.762 453.524 289.026 453.445C291.529 452.524 297.723 450.925 306.484 450.527C314.434 450.166 321.976 450.538 326.122 450.878C327.045 450.935 327.73 451 328.108 451.065Z" fill="#FFF7EB"/>
<path d="M325.88 451.852C325.315 451.93 324.598 452.042 323.751 452.188C319.551 453.008 310.832 455.221 303.349 457.961C294.808 461.087 287.849 464.446 285.914 465.764C285.727 465.911 285.563 466.046 285.423 466.168C285.498 466.071 285.665 465.934 285.914 465.764C288.23 463.946 294.176 460.267 303.178 457.312C311.346 454.631 319.322 452.948 323.751 452.188C324.731 451.996 325.465 451.881 325.88 451.852Z" fill="#FFF7EB"/>
<path d="M330.03 451.106C329.558 451.288 328.958 451.529 328.251 451.822C324.752 453.342 317.525 456.842 311.384 460.41C304.376 464.483 298.726 468.347 297.183 469.681C297.035 469.823 296.906 469.952 296.797 470.065C296.853 469.983 296.984 469.853 297.183 469.681C299.012 467.924 303.78 464.077 311.192 460.013C317.917 456.326 324.553 453.355 328.251 451.822C329.067 451.468 329.681 451.221 330.03 451.106Z" fill="#FFF7EB"/>
<path d="M371.157 443.862C371.583 443.653 372.13 443.396 372.782 443.102C376.058 441.706 383.089 439.148 389.498 437.508C396.813 435.637 403.135 434.65 405.065 434.631C405.261 434.642 405.434 434.656 405.585 434.672C405.49 434.642 405.314 434.628 405.065 434.631C402.648 434.495 396.885 434.802 389.327 437C382.469 438.994 376.19 441.561 372.782 443.102C372.017 443.427 371.457 443.689 371.157 443.862Z" fill="#FFF7EB"/>
<path d="M373.384 443.922C373.884 443.831 374.524 443.728 375.284 443.618C379.084 443.169 387.134 442.719 394.312 443.128C402.503 443.594 409.435 444.742 411.486 445.425C411.69 445.509 411.871 445.589 412.028 445.664C411.933 445.593 411.75 445.513 411.486 445.425C408.956 444.38 402.774 442.633 394.249 442.464C386.513 442.311 379.258 443.046 375.284 443.618C374.398 443.723 373.743 443.828 373.384 443.922Z" fill="#FFF7EB"/>
<path d="M369.649 444.427C370.105 444.462 370.687 444.515 371.377 444.586C374.809 445.004 382.012 446.206 388.322 447.791C395.523 449.601 401.515 451.608 403.24 452.42C403.41 452.511 403.559 452.595 403.688 452.671C403.614 452.609 403.462 452.525 403.24 452.42C401.139 451.291 395.896 449.042 388.358 447.36C381.517 445.833 374.98 444.958 371.377 444.586C370.576 444.489 369.98 444.434 369.649 444.427Z" fill="#FFF7EB"/>
<path d="M396.114 374.77C398.172 379.182 400.359 394.154 400.359 406.746C400.359 419.236 395.531 427.994 391.546 433.933C391.572 434.525 391.586 435.121 391.586 435.719C391.586 446.08 387.676 455.528 381.253 462.665C389.333 468.863 399.124 477.664 403.842 486.335C410.565 498.692 412.741 513.314 413.131 522.433C420.356 533.158 427.921 557.499 427.581 572.788C427.449 578.711 425.497 584.872 422.912 590.488C435.708 588.877 447.937 584.722 453.821 575.535C465.046 558.009 457.692 546.63 469.819 546.63C481.947 546.63 478.85 576.45 466.336 587.437C453.821 598.423 437.823 609.802 412.665 609.802C412.013 609.802 411.359 609.801 410.702 609.799C410.664 609.844 410.628 609.889 410.591 609.933H336.017C328.18 607.184 312.251 597.052 311.229 578.516C309.953 555.346 315.595 543.098 319.208 529.558C320.146 526.043 319.634 515.552 321.336 494.476C322.095 485.073 325.229 476.074 328.603 468.969C318.573 462.089 311.814 450.784 311.136 437.865C307.008 431.942 301.403 422.841 301.403 409.43C301.403 396.863 303.597 381.92 305.661 377.517C314.305 379.74 322.971 383.567 332.109 390.203C335.35 392.557 337.787 394.948 339.617 397.168C343.324 396.041 347.258 395.435 351.332 395.435C354.555 395.435 357.689 395.814 360.692 396.53C362.616 393.767 365.483 390.592 369.744 387.482C378.855 380.832 387.495 376.998 396.114 374.77Z" fill="#564B47"/>
<path d="M365.67 456.473C371.382 450.807 380.409 442.765 383.378 443.592C387.618 444.774 384.34 452.571 384.973 455.457C385.606 458.342 394.457 461.072 390.467 468.762C387.492 474.496 374.869 469.606 367.702 465.832C367.332 466.732 366.54 467.405 365.559 467.53L362.28 467.95C361.415 468.061 360.594 467.722 360.023 467.105C353.729 472.625 343.942 480.272 340.816 479.141C336.319 477.514 340.07 469.507 339.483 466.383C338.897 463.259 329.517 459.584 334.025 451.753C337.55 445.63 352.052 452.856 359.335 457.517C359.75 457.056 360.311 456.739 360.953 456.657L364.232 456.237C364.74 456.172 365.233 456.263 365.67 456.473Z" fill="#E67272"/>
<path fill-rule="evenodd" clip-rule="evenodd" d="M74.8028 560C76.3416 560 77.5891 561.259 77.5891 562.811V610.605H38.5831V603.173C33.2988 601.644 29.3005 599.795 26.6026 597.251C20.1945 591.206 21.5031 582.655 24.3736 577.571C27.1874 572.587 31.3391 571.105 36.3087 570.683C37.1352 570.613 37.8904 570.644 38.5831 570.747V562.811C38.5831 561.259 39.8306 560 41.3693 560H74.8028ZM36.3087 576.932C29.946 576.932 26.9673 584.939 29.1101 589.519C31.1672 593.917 34.9231 595.455 38.5831 596.364V577.257C37.854 577.054 37.0911 576.932 36.3087 576.932Z" fill="#A3D6F4"/>
<rect y="610.23" width="555.891" height="29.7674" rx="10" fill="#D89149"/>
<defs>
<linearGradient id="paint0_linear_82_90" x1="277.945" y1="309.797" x2="277.945" y2="619.737" gradientUnits="userSpaceOnUse">
<stop stop-color="#9FD2E1"/>
<stop offset="1" stop-color="#FDC4D4"/>
</linearGradient>
</defs>
</svg>
